<?xml version="1.0" encoding="UTF-8"?>
<svg id="Layer_2" data-name="Layer 2" xmlns="http://www.w3.org/2000/svg" viewBox="0 0 182.48 62.16">
  <defs>
    <style>
      .cls-1 {
        fill: #231f20;
      }

      .cls-2 {
        fill: #0059ff;
      }
    </style>
  </defs>
  <g id="Layer_1-2" data-name="Layer 1">
    <g>
      <path class="cls-1" d="M50.78,41.48c-3.72,8.32-12.33,20.64-20.94,20.64-4.99,0-7.04-3.62-7.44-6.56-2.05,3.03-5.28,6.56-11.25,6.56-6.85,0-11.15-5.87-11.15-14.19,0-13.11,8.81-26.12,19.96-26.12,4.11,0,8.02,2.54,9.39,5.28l1.57-4.31h8.41c-9,24.75-11.15,31.31-7.24,31.31,4.11,0,10.66-7.53,15.85-17.71l2.84,5.09ZM27.2,33.56c-1.08-2.35-3.62-4.11-6.56-4.11-7.24,0-12.03,9.39-12.03,17.9,0,3.52,1.76,6.75,5.38,6.75,5.19,0,9.2-7.04,13.21-20.55Z"/>
      <path class="cls-1" d="M86.78,41.48c-3.62,8.22-12.43,20.64-20.74,20.64-5.67,0-8.71-4.21-8.71-9.1,0-6.26,3.52-13.5,7.14-21.43-2.05-.1-5.19-.39-7.93-1.08-3.91,10.27-9.1,18.3-13.99,23.97-4.31,4.79-7.83.29-3.42-4.89,6.65-7.73,10.76-19.37,13.11-30.04h7.63c-.29,1.37-.69,2.64-.98,3.91,4.7.98,13.01,1.37,16.83,1.27-3.72,8.12-9.69,21.13-9.69,26.12,0,2.05.88,3.23,2.54,3.23,4.01,0,11.25-9.29,15.36-17.71l2.84,5.09Z"/>
      <path class="cls-1" d="M129.73,41.48c-3.72,8.32-12.33,20.64-20.94,20.64-4.99,0-7.04-3.62-7.44-6.56-2.05,3.03-5.28,6.56-11.25,6.56-6.85,0-11.15-5.87-11.15-14.19,0-13.11,8.81-26.12,19.96-26.12,4.11,0,8.02,2.54,9.39,5.28l1.57-4.31h8.41c-9,24.75-11.15,31.31-7.24,31.31,4.11,0,10.66-7.53,15.85-17.71l2.84,5.09ZM106.15,33.56c-1.08-2.35-3.62-4.11-6.55-4.11-7.24,0-12.03,9.39-12.03,17.9,0,3.52,1.76,6.75,5.38,6.75,5.19,0,9.2-7.04,13.21-20.55Z"/>
      <path class="cls-2" d="M161.43,46.28c-3.13,3.72-9.39,8.61-14.97,8.61-4.01,0-6.36-2.15-6.75-5.48,10.76-1.08,19.76-9,19.76-18.3,0-5.28-3.82-9.29-9.49-9.29-5.28,0-10.76,4.01-14.19,9l-7.86,24.29c4.48-12.93,11.07-25.86,19.21-25.86,2.45,0,3.82,1.57,3.82,3.72,0,4.99-8.12,12.23-17.22,12.33-2.35,9.49,2.54,16.83,10.96,16.83,9,0,16.53-4.99,20.64-10.08l-3.91-5.77Z"/>
      <path d="M117.7,61.15L138.34,0c-6.95,20.35-13.99,40.7-20.64,61.15Z"/>
      <path d="M127.94,55.11c-.69,2-1.33,3.99-1.92,5.94l1.92-5.94Z"/>
      <path d="M147.34,0c-3.52,9.2-8.12,21.62-11.54,30.82L147.34,0Z"/>
      <path class="cls-1" d="M147.34,0h-9l-20.64,61.15,8.32-.1c.59-1.95,1.23-3.95,1.92-5.94l7.86-24.29c3.42-9.2,8.02-21.62,11.54-30.82Z"/>
      <circle class="cls-2" cx="175.43" cy="55.11" r="7.05"/>
    </g>
  </g>
</svg>