<?xml version="1.0" encoding="UTF-8"?>
<svg id="Layer_2" data-name="Layer 2" xmlns="http://www.w3.org/2000/svg" viewBox="0 0 334.23 62.13">
  <defs>
    <style>
      .cls-1 {
        fill: #0059ff;
      }

      .cls-2 {
        fill: #000f26;
      }
    </style>
  </defs>
  <g id="Layer_1-2" data-name="Layer 1">
    <path class="cls-2" d="M50.78,41.48c-3.72,8.32-12.33,20.64-20.94,20.64-4.99,0-7.04-3.62-7.44-6.56-2.05,3.03-5.28,6.56-11.25,6.56-6.85,0-11.15-5.87-11.15-14.19,0-13.11,8.81-26.12,19.96-26.12,4.11,0,8.02,2.54,9.39,5.28l1.57-4.31h6.94c.72,0,1.21.72.97,1.39-8.58,23.61-10.57,29.92-6.73,29.92,4.11,0,10.66-7.53,15.85-17.71l2.84,5.09ZM27.2,33.56c-1.08-2.35-3.62-4.11-6.56-4.11-7.24,0-12.03,9.39-12.03,17.9,0,3.52,1.76,6.75,5.38,6.75,5.19,0,9.2-7.04,13.21-20.55Z"/>
    <path class="cls-2" d="M86.78,41.48c-3.62,8.22-12.43,20.64-20.74,20.64-5.67,0-8.71-4.21-8.71-9.1,0-6.26,3.52-13.5,7.14-21.43-2.05-.1-5.19-.39-7.93-1.08-3.91,10.27-9.1,18.3-13.99,23.97-4.31,4.79-7.83.29-3.42-4.89,6.65-7.73,10.76-19.37,13.11-30.04h6.33c.67,0,1.16.63.99,1.28-.23.9-.47,1.76-.67,2.63,4.12.86,11.04,1.27,15.25,1.29.74,0,1.22.76.92,1.44-3.72,8.14-9.02,19.97-9.02,24.67,0,2.05.88,3.23,2.54,3.23,4.01,0,11.25-9.29,15.36-17.71l2.84,5.09Z"/>
    <path class="cls-2" d="M129.73,41.48c-3.72,8.32-12.33,20.64-20.94,20.64-4.99,0-7.04-3.62-7.44-6.56-2.05,3.03-5.28,6.56-11.25,6.56-6.85,0-11.15-5.87-11.15-14.19,0-13.11,8.81-26.12,19.96-26.12,4.11,0,8.02,2.54,9.39,5.28l1.57-4.31h6.94c.72,0,1.21.72.97,1.39-8.58,23.61-10.57,29.92-6.73,29.92,4.11,0,10.66-7.53,15.85-17.71l2.84,5.09ZM106.15,33.56c-1.08-2.35-3.62-4.11-6.55-4.11-7.24,0-12.03,9.39-12.03,17.9,0,3.52,1.76,6.75,5.38,6.75,5.19,0,9.2-7.04,13.21-20.55Z"/>
    <path class="cls-1" d="M165.15,41.48c-5.09,10.66-11.84,20.64-27.39,20.64-8.81,0-15.46-5.67-15.46-15.56,0-13.11,9-24.75,20.06-24.75,9.33,0,13.38,8.7,10.8,17.28-.13.43-.54.72-.99.72h-7.85c2.05-6.07.59-10.47-3.03-10.47-5.38,0-10.27,8.32-10.27,16.24,0,5.97,3.42,9.29,8.51,9.29,9.69,0,16.14-6.07,22.6-18.59l3.03,5.19Z"/>
    <path class="cls-1" d="M200.66,52.05c-4.11,5.09-11.64,10.08-20.64,10.08-8.41,0-13.31-7.34-10.96-16.83,9.1-.1,17.22-7.34,17.22-12.33,0-2.15-1.37-3.72-3.82-3.72-9.39,0-16.73,17.22-21.13,31.8l-8.32.1C159.67,40.7,166.71,20.35,173.66,0h7.51c.72,0,1.22.72.96,1.39-3.44,9.03-7.76,20.69-11.01,29.43,3.42-4.99,8.9-9,14.19-9,5.67,0,9.49,4.01,9.49,9.29,0,9.29-9,17.22-19.76,18.3.39,3.33,2.74,5.48,6.75,5.48,5.11,0,10.79-4.1,14.11-7.65.45-.48,1.23-.42,1.6.13l3.17,4.68Z"/>
    <g>
      <path d="M218.34,25.06c2.2-1.35,4.65-2.03,7.35-2.03,1.01,0,2.05.11,3.14.32,1.09.21,2.15.62,3.18,1.23,1.03.61,1.99,1.42,2.86,2.42.87,1.01,1.63,2.3,2.26,3.89,1.27-2.54,3.01-4.49,5.2-5.84,2.2-1.35,4.81-2.03,7.83-2.03,4.71,0,8.25,1.4,10.61,4.21,2.36,2.81,3.54,6.52,3.54,11.12v22.8h-5.4v-20.58c0-3.92-.73-7.07-2.18-9.46-1.46-2.38-3.93-3.58-7.43-3.58-1.96,0-3.62.4-4.97,1.19-1.35.79-2.44,1.84-3.26,3.14-.82,1.3-1.42,2.77-1.79,4.41-.37,1.64-.56,3.34-.56,5.09v19.79h-5.4v-21.69c0-1.8-.13-3.44-.4-4.93-.27-1.48-.73-2.74-1.39-3.77-.66-1.03-1.58-1.83-2.74-2.38-1.17-.56-2.65-.83-4.45-.83-1.27,0-2.56.29-3.85.87-1.3.58-2.46,1.47-3.5,2.66-1.03,1.19-1.87,2.7-2.5,4.53-.64,1.83-.95,3.99-.95,6.48v19.07h-5.4v-29c0-1.01-.03-2.3-.08-3.89-.05-1.59-.13-3.02-.24-4.29h5.16c.11,1.01.18,2.12.24,3.34.05,1.22.08,2.22.08,3.02h.16c1.06-2.17,2.69-3.93,4.89-5.28Z"/>
      <path d="M297.76,37.11c0-3.21-.85-5.6-2.54-7.18-1.7-1.58-4.16-2.37-7.39-2.37-2.23,0-4.29.4-6.2,1.19-1.91.79-3.52,1.85-4.85,3.18l-3.02-3.58c1.54-1.54,3.56-2.81,6.08-3.81,2.51-1.01,5.36-1.51,8.54-1.51,2.01,0,3.89.28,5.64.83,1.75.56,3.28,1.39,4.61,2.5,1.32,1.11,2.36,2.52,3.1,4.21.74,1.7,1.11,3.68,1.11,5.96v16.29c0,1.43.05,2.91.16,4.45.11,1.54.26,2.83.48,3.89h-4.85c-.16-.9-.29-1.88-.4-2.94-.11-1.06-.16-2.09-.16-3.1h-.16c-1.7,2.49-3.61,4.28-5.76,5.36-2.15,1.08-4.73,1.63-7.75,1.63-1.43,0-2.9-.2-4.41-.6-1.51-.4-2.89-1.05-4.13-1.95-1.25-.9-2.28-2.07-3.1-3.51-.82-1.44-1.23-3.19-1.23-5.26,0-2.87.73-5.14,2.18-6.82,1.46-1.67,3.4-2.92,5.84-3.75,2.44-.82,5.23-1.36,8.38-1.6,3.15-.24,6.42-.36,9.81-.36v-1.18ZM296.17,42.58c-2.22,0-4.46.09-6.71.28-2.25.19-4.29.56-6.12,1.11-1.83.56-3.32,1.36-4.49,2.42-1.17,1.06-1.75,2.46-1.75,4.21,0,1.32.25,2.44.76,3.34.5.9,1.18,1.63,2.03,2.18.85.56,1.79.95,2.82,1.19,1.03.24,2.08.36,3.14.36,1.91,0,3.6-.33,5.09-.99,1.48-.66,2.73-1.56,3.73-2.7,1.01-1.14,1.77-2.45,2.3-3.93.53-1.48.79-3.05.79-4.69v-2.78h-1.59Z"/>
      <path d="M319.37,9.69c0,1.11-.4,2.03-1.19,2.74-.79.71-1.67,1.07-2.62,1.07s-1.83-.36-2.62-1.07c-.79-.72-1.19-1.63-1.19-2.74s.4-2.03,1.19-2.74,1.67-1.07,2.62-1.07,1.83.36,2.62,1.07c.79.71,1.19,1.63,1.19,2.74ZM318.26,61.17h-5.4V23.99h5.4v37.19Z"/>
      <path d="M334.23,61.17h-5.4V5.66h5.4v55.51Z"/>
    </g>
  </g>
</svg>